<?xml version="1.0" encoding="UTF-8"?>
<svg width="35px" height="76px" viewBox="0 0 35 76" version="1.1" xmlns="http://www.w3.org/2000/svg" xmlns:xlink="http://www.w3.org/1999/xlink">
    <title>形状结合 3</title>
    <defs>
        <linearGradient x1="50%" y1="0%" x2="50%" y2="100%" id="linearGradient-1">
            <stop stop-color="#4785FF" offset="0%"></stop>
            <stop stop-color="#7DFFF1" offset="100%"></stop>
        </linearGradient>
    </defs>
    <g id="头图缩小-最终" stroke="none" stroke-width="1" fill="none" fill-rule="evenodd">
        <g id="0920切图" transform="translate(-122.000000, -949.000000)" fill="url(#linearGradient-1)">
            <g id="形状结合-3" transform="translate(122.015861, 949.003704)">
                <path d="M19.3438851,0.646153287 C19.5273004,0.791063652 19.6931508,0.956914113 19.8380612,1.14032944 L34.3221234,19.4730342 C35.3492587,20.7730954 35.1280085,22.6596609 33.8279473,23.6867961 C33.0846379,24.2740603 32.1076224,24.4757456 31.1925254,24.2308263 L26.461,22.964 L26.4617892,72.1027876 C26.4617892,73.7596418 25.1186435,75.1027876 23.4617892,75.1027876 L11.5063951,75.1027876 C9.84954081,75.1027876 8.50639506,73.7596418 8.50639506,72.1027876 L8.506,22.964 L3.77565893,24.2308263 C2.17513813,24.6591944 0.530398745,23.7089769 0.102030681,22.1084561 C-0.142888563,21.193359 0.0587967587,20.2163436 0.646060875,19.4730342 L15.1301231,1.14032944 C16.1572583,-0.159731777 18.0438238,-0.380981976 19.3438851,0.646153287 Z" id="形状结合"></path>
            </g>
        </g>
    </g>
</svg>